<svg width="121" height="121" viewBox="0 0 121 121" fill="none" xmlns="http://www.w3.org/2000/svg">
<mask id="mask0_53_491" style="mask-type:luminance" maskUnits="userSpaceOnUse" x="0" y="0" width="121" height="121">
<path d="M0 0H120.224V120.523H0V0Z" fill="white"/>
</mask>
<g mask="url(#mask0_53_491)">
<path d="M13.9003 43.3047V13.9173H43.2877L13.9003 43.3047ZM108.324 118.18C108.401 118.258 108.48 118.333 108.559 118.405C108.602 118.442 108.644 118.479 108.687 118.514C108.731 118.552 108.773 118.591 108.817 118.626C108.871 118.671 108.926 118.712 108.981 118.755C109.015 118.782 109.048 118.809 109.083 118.834C109.143 118.88 109.205 118.922 109.266 118.965C109.297 118.986 109.327 119.008 109.36 119.03C109.422 119.072 109.486 119.112 109.549 119.152C109.582 119.171 109.613 119.193 109.646 119.213C109.71 119.251 109.773 119.286 109.837 119.322C109.872 119.341 109.908 119.363 109.943 119.381C110.004 119.414 110.065 119.443 110.126 119.476C110.167 119.496 110.21 119.517 110.252 119.537C110.307 119.562 110.364 119.588 110.421 119.612C110.469 119.635 110.517 119.657 110.568 119.677C110.618 119.697 110.667 119.717 110.718 119.737C110.776 119.759 110.833 119.781 110.89 119.8C110.935 119.817 110.979 119.832 111.024 119.847C111.088 119.868 111.152 119.89 111.218 119.91C111.257 119.921 111.298 119.932 111.337 119.942C111.407 119.963 111.476 119.983 111.548 120C111.585 120.009 111.622 120.017 111.659 120.026C111.731 120.043 111.805 120.06 111.88 120.074C111.918 120.081 111.955 120.087 111.992 120.094C112.065 120.108 112.139 120.121 112.213 120.132C112.257 120.138 112.301 120.142 112.345 120.149C112.413 120.157 112.479 120.164 112.547 120.172C112.607 120.179 112.666 120.182 112.724 120.186C112.779 120.189 112.833 120.196 112.887 120.197C113 120.203 113.117 120.206 113.23 120.206C113.346 120.206 113.459 120.203 113.576 120.197C113.629 120.196 113.683 120.189 113.737 120.186C113.795 120.182 113.856 120.179 113.914 120.172C113.982 120.164 114.05 120.157 114.117 120.149C114.161 120.142 114.205 120.138 114.249 120.132C114.322 120.121 114.396 120.108 114.468 120.094C114.506 120.087 114.545 120.081 114.583 120.074C114.657 120.06 114.729 120.043 114.802 120.026C114.841 120.017 114.878 120.009 114.913 120C114.984 119.983 115.055 119.963 115.125 119.942C115.165 119.932 115.205 119.921 115.244 119.91C115.308 119.89 115.373 119.868 115.437 119.847C115.482 119.832 115.526 119.817 115.57 119.8C115.628 119.781 115.686 119.759 115.743 119.738C115.793 119.717 115.844 119.697 115.895 119.677C115.943 119.657 115.992 119.635 116.042 119.613C116.099 119.588 116.155 119.562 116.211 119.537C116.253 119.517 116.293 119.496 116.334 119.476C116.396 119.445 116.459 119.414 116.519 119.381C116.555 119.363 116.589 119.341 116.624 119.323C116.688 119.286 116.753 119.251 116.817 119.213C116.848 119.193 116.879 119.171 116.91 119.153C116.976 119.112 117.039 119.072 117.102 119.03C117.133 119.008 117.164 118.987 117.195 118.966C117.256 118.922 117.318 118.88 117.379 118.834C117.412 118.809 117.446 118.783 117.48 118.756C117.535 118.714 117.59 118.671 117.646 118.626C117.688 118.591 117.729 118.554 117.772 118.517C117.816 118.48 117.86 118.443 117.904 118.405C117.98 118.334 118.055 118.262 118.13 118.188C118.136 118.181 118.144 118.174 118.151 118.168C118.159 118.161 118.166 118.154 118.171 118.147C118.245 118.072 118.317 117.997 118.388 117.919C118.428 117.877 118.463 117.833 118.5 117.789C118.538 117.746 118.575 117.705 118.609 117.661C118.654 117.607 118.697 117.552 118.739 117.497C118.766 117.463 118.792 117.429 118.817 117.396C118.863 117.335 118.907 117.273 118.949 117.211C118.97 117.18 118.992 117.15 119.013 117.119C119.055 117.055 119.096 116.993 119.136 116.926C119.157 116.896 119.176 116.864 119.196 116.834C119.234 116.769 119.269 116.705 119.306 116.641C119.324 116.606 119.346 116.572 119.364 116.535C119.397 116.476 119.428 116.413 119.459 116.352C119.479 116.31 119.5 116.269 119.52 116.228C119.545 116.172 119.571 116.116 119.596 116.059C119.618 116.009 119.64 115.96 119.66 115.912C119.68 115.861 119.7 115.81 119.72 115.76C119.742 115.703 119.764 115.645 119.785 115.587C119.8 115.543 119.816 115.499 119.83 115.454C119.851 115.39 119.873 115.325 119.893 115.261C119.904 115.222 119.915 115.181 119.925 115.142C119.946 115.072 119.966 115.001 119.983 114.93C119.992 114.895 120 114.856 120.009 114.821C120.026 114.746 120.043 114.674 120.057 114.598C120.064 114.562 120.071 114.523 120.078 114.487C120.091 114.413 120.104 114.341 120.115 114.266C120.121 114.222 120.125 114.179 120.132 114.135C120.14 114.067 120.149 114.001 120.156 113.93C120.162 113.872 120.165 113.815 120.169 113.756C120.172 113.702 120.179 113.646 120.18 113.591C120.186 113.479 120.189 113.367 120.189 113.255C120.189 113.254 120.189 113.251 120.189 113.247V60.1035C120.189 60.1021 120.189 60.0993 120.189 60.0978C120.189 59.9845 120.186 59.8726 120.18 59.7593C120.179 59.7054 120.172 59.6502 120.169 59.5963C120.165 59.5382 120.162 59.4788 120.156 59.4207C120.149 59.3527 120.14 59.2847 120.132 59.2167C120.125 59.1727 120.121 59.1288 120.115 59.0849C120.104 59.0112 120.091 58.939 120.078 58.8653C120.071 58.8271 120.064 58.7902 120.057 58.752C120.043 58.6783 120.026 58.6047 120.009 58.531C120 58.4942 119.992 58.4573 119.983 58.4205C119.966 58.3497 119.946 58.2788 119.925 58.2094C119.915 58.1698 119.904 58.1301 119.893 58.0904C119.873 58.0252 119.851 57.9615 119.83 57.8963C119.816 57.8524 119.8 57.8071 119.785 57.7632C119.764 57.7051 119.742 57.6484 119.72 57.5903C119.7 57.5407 119.68 57.4897 119.66 57.4402C119.64 57.3906 119.616 57.341 119.595 57.2914C119.571 57.2362 119.545 57.1795 119.52 57.1242C119.5 57.0817 119.479 57.0392 119.458 56.9967C119.426 56.9372 119.397 56.8763 119.364 56.8168C119.346 56.78 119.324 56.7446 119.305 56.7077C119.268 56.644 119.234 56.5817 119.196 56.5193C119.176 56.4853 119.154 56.4542 119.133 56.4216C119.094 56.3578 119.055 56.2955 119.013 56.2318C118.992 56.1992 118.967 56.168 118.946 56.1354C118.904 56.0759 118.863 56.015 118.819 55.9569C118.792 55.9201 118.762 55.8847 118.735 55.8493C118.694 55.7954 118.653 55.7416 118.61 55.6906C118.571 55.6424 118.531 55.5971 118.491 55.5518C118.457 55.5121 118.425 55.4724 118.388 55.4328C118.312 55.3477 118.232 55.2642 118.15 55.182L65.008 2.04C63.7486 0.779167 62.0089 0 60.0865 0H-0.0155792V60.1035C-0.0155792 60.2183 -0.0127463 60.333 -0.00707922 60.4478C-0.00566265 60.5016 0.00142059 60.5554 0.00425411 60.6092C0.00850384 60.6688 0.0113374 60.7268 0.0170041 60.7863C0.0240874 60.8543 0.0325873 60.9237 0.0410874 60.9903C0.0481707 61.0342 0.0524208 61.0782 0.0580874 61.1207C0.0694208 61.1943 0.0821705 61.268 0.0949208 61.3417C0.102004 61.3799 0.109088 61.4168 0.116171 61.4536C0.130338 61.5287 0.147337 61.6023 0.164337 61.6774C0.172837 61.7128 0.181338 61.7497 0.189837 61.7865C0.206837 61.8573 0.226671 61.9282 0.247921 61.9976C0.257838 62.0373 0.269171 62.0769 0.280504 62.1166C0.300338 62.1818 0.321588 62.2469 0.342837 62.3121C0.357004 62.3546 0.372587 62.3999 0.388171 62.4438C0.409421 62.5019 0.430671 62.5586 0.453337 62.6167C0.473171 62.6677 0.493004 62.7158 0.512837 62.7654C0.532671 62.8164 0.556754 62.866 0.578004 62.9156C0.602087 62.9708 0.627588 63.0275 0.653087 63.0827C0.672921 63.1252 0.694171 63.1678 0.715421 63.2088C0.746587 63.2712 0.776337 63.3307 0.808921 63.3902C0.827337 63.427 0.848587 63.4624 0.868421 63.4992C0.905254 63.5616 0.939254 63.6253 0.977504 63.6877C0.997338 63.7202 1.01859 63.7528 1.03984 63.7868C1.0795 63.8492 1.11775 63.9129 1.16025 63.9738C1.1815 64.0064 1.20559 64.039 1.22684 64.0716C1.26934 64.1311 1.31042 64.192 1.35434 64.2501C1.38125 64.2869 1.40959 64.3209 1.43509 64.3563C1.47759 64.4102 1.51867 64.464 1.564 64.5178C1.59942 64.5618 1.63909 64.6057 1.67592 64.6496C1.71275 64.6921 1.74817 64.7332 1.785 64.7742C1.85584 64.8536 1.93092 64.9315 2.006 65.008C2.01167 65.0123 2.01592 65.0193 2.02159 65.0236C2.02725 65.0293 2.03292 65.0335 2.04 65.0406C2.11509 65.1157 2.19159 65.1893 2.27092 65.2602C2.31342 65.2984 2.35592 65.3353 2.39984 65.3721C2.44234 65.4089 2.48484 65.4457 2.52875 65.4826C2.58259 65.5265 2.63784 65.569 2.69309 65.6115C2.72709 65.637 2.76109 65.6653 2.79367 65.6908C2.85459 65.7347 2.91692 65.7787 2.97784 65.8212C3.009 65.8424 3.04017 65.8651 3.07134 65.8849C3.13367 65.9274 3.19742 65.9685 3.26117 66.0096C3.29375 66.028 3.32634 66.0492 3.35609 66.0677C3.41984 66.1059 3.485 66.1428 3.54875 66.1782C3.58417 66.198 3.61817 66.2178 3.655 66.2363C3.7145 66.2702 3.77684 66.3 3.83917 66.3312C3.88025 66.351 3.91992 66.3723 3.96242 66.3921C4.01767 66.419 4.07434 66.4445 4.13242 66.47C4.18059 66.4898 4.23017 66.5125 4.27834 66.5323C4.32934 66.5536 4.38034 66.5734 4.42992 66.5918C4.48659 66.6145 4.54467 66.6372 4.60275 66.657C4.64667 66.6726 4.69059 66.6882 4.73592 66.7023C4.79967 66.7236 4.86484 66.7448 4.92859 66.7647C4.96825 66.7774 5.00792 66.7873 5.04759 66.7987C5.11842 66.8185 5.18925 66.8383 5.26009 66.8553C5.2955 66.8652 5.33234 66.8737 5.37059 66.8822C5.44425 66.8992 5.5165 66.9163 5.59159 66.9304C5.62842 66.9375 5.66667 66.9432 5.70492 66.9502C5.77717 66.963 5.84942 66.9758 5.9245 66.9871C5.96842 66.9942 6.01234 66.9984 6.05625 67.0027C6.12425 67.0126 6.19084 67.0211 6.25884 67.0282C6.31834 67.0338 6.37784 67.0367 6.43592 67.0409C6.48975 67.0452 6.54359 67.0494 6.59742 67.0537C6.71359 67.0579 6.82692 67.0622 6.94309 67.0622C7.05642 67.0622 7.17259 67.0579 7.28592 67.0537C7.33975 67.0494 7.395 67.0452 7.44884 67.0409C7.50692 67.0367 7.56642 67.0338 7.62592 67.0282C7.69392 67.0211 7.7605 67.0112 7.82992 67.0027C7.87242 66.9984 7.91634 66.9942 7.96025 66.9871C8.03392 66.9758 8.10759 66.9616 8.18125 66.9502C8.21809 66.9432 8.25492 66.9375 8.29317 66.9304C8.36825 66.9163 8.44192 66.8992 8.51417 66.8808C8.551 66.8723 8.58784 66.8652 8.62467 66.8553C8.69692 66.8383 8.76634 66.8185 8.83717 66.7987C8.87542 66.7873 8.9165 66.7774 8.95475 66.7647C9.02134 66.7448 9.08509 66.7236 9.14884 66.7023C9.19417 66.6868 9.23809 66.6726 9.28342 66.657C9.34009 66.6372 9.39675 66.6145 9.45484 66.5918C9.50584 66.5734 9.55542 66.5536 9.605 66.5323C9.656 66.5125 9.70559 66.4898 9.75375 66.4686C9.809 66.4431 9.86567 66.419 9.92092 66.3921C9.96342 66.3723 10.0059 66.351 10.047 66.3298C10.1079 66.3 10.1688 66.2688 10.2298 66.2377C10.2652 66.2178 10.3006 66.198 10.336 66.1782C10.3998 66.1428 10.4635 66.1045 10.5273 66.0677C10.5598 66.0492 10.591 66.028 10.6236 66.0082C10.6873 65.9685 10.7511 65.9274 10.8134 65.8849C10.846 65.8651 10.8758 65.8424 10.9069 65.8197C10.9678 65.7787 11.0302 65.7347 11.0897 65.6908C11.1251 65.6653 11.1577 65.637 11.1917 65.6115C11.2469 65.569 11.3022 65.5265 11.356 65.4826C11.3999 65.4457 11.4424 65.4089 11.4849 65.3721C11.5288 65.3353 11.5713 65.2984 11.6138 65.2602C11.6918 65.1893 11.7683 65.1157 11.8448 65.0406C11.8504 65.0335 11.8561 65.0293 11.8632 65.0236L60.0865 16.8002L106.273 62.9864V96.4481L60.0865 50.2633L2.02159 108.327C0.663004 109.685 -0.0155792 111.468 -0.0155792 113.247C-0.0155792 115.029 0.663004 116.808 2.02159 118.168C4.73875 120.886 9.14459 120.886 11.8632 118.168L60.0865 69.9437L108.31 118.168C108.316 118.171 108.32 118.177 108.324 118.18Z" fill="#5CE1E6"/>
</g>
</svg>
